<svg version="1.1" xmlns="http://www.w3.org/2000/svg" width="6151" height="1024" viewBox="0 0 6151 1024">
<title></title>
<g id="logotype">
</g>
<path fill="#ffffff" d="M6045.961-0.542c17.551 0 34.69 4.513 51.439 13.559 16.727 9.003 29.765 21.934 39.094 38.704 9.329 16.814 14.015 34.343 14.015 52.523 0 18.072-4.599 35.449-13.82 52.068-9.177 16.683-22.064 29.614-38.66 38.812-16.618 9.242-33.996 13.841-52.068 13.841-18.115 0-35.493-4.599-52.111-13.841-16.597-9.199-29.527-22.129-38.747-38.812-9.242-16.618-13.885-33.996-13.885-52.068 0-18.18 4.686-35.71 14.058-52.523 9.416-16.77 22.476-29.7 39.203-38.704 16.748-9.047 33.887-13.559 51.482-13.559zM6045.961 16.792c-14.709 0-29.049 3.797-42.978 11.325-13.906 7.528-24.797 18.332-32.651 32.369-7.854 14.015-11.78 28.616-11.78 43.759 0 15.121 3.883 29.57 11.585 43.412 7.723 13.841 18.506 24.624 32.391 32.347 13.863 7.723 28.334 11.607 43.433 11.607 15.056 0 29.527-3.883 43.412-11.607 13.863-7.723 24.645-18.506 32.325-32.347 7.658-13.841 11.498-28.29 11.498-43.412 0-15.143-3.927-29.744-11.737-43.759-7.81-14.037-18.701-24.841-32.673-32.369-13.95-7.528-28.247-11.325-42.826-11.325zM6000.011 162.061v-112.575h38.704c13.256 0 22.823 1.041 28.724 3.124 5.966 2.083 10.652 5.684 14.21 10.913 3.493 5.163 5.25 10.652 5.25 16.466 0 8.201-2.929 15.403-8.852 21.478-5.858 6.096-13.668 9.524-23.431 10.283 3.97 1.649 7.203 3.645 9.567 5.966 4.534 4.404 10.088 11.845 16.662 22.302l13.733 22.042h-22.064l-10.045-17.725c-7.854-13.972-14.232-22.736-19.070-26.251-3.298-2.56-8.136-3.84-14.514-3.775h-10.717v47.751h-18.159zM6018.169 98.668h22.064c10.565 0 17.746-1.562 21.586-4.686s5.771-7.311 5.771-12.431c0-3.298-0.955-6.292-2.799-8.895-1.844-2.647-4.404-4.599-7.658-5.879-3.319-1.28-9.372-1.931-18.267-1.931h-20.697v33.822z"></path>
<path fill="#ffffff" d="M796.963 81.595h-796.963v25.144h772.469l24.494-25.144zM528.249 516.621l-470.671 482.777h714.891v25.144h-772.469l494.904-507.921h33.345z"></path>
<path fill="#ffffff" d="M814.319 553.068c0-247.669 199.702-447.588 447.132-447.588 246.151 0 444.594 206.188 444.594 447.588 0 242.658-202.197 447.588-447.111 447.588v23.886c258.734 0 470.975-211.222 470.975-471.474s-209.746-471.474-468.458-471.474c-259.992 0-470.997 211.222-470.997 471.474h23.864z"></path>
<path fill="#ffffff" d="M1863.919 1024.542h25.123v-384.716h455.116l222.308 384.716h28.898l-223.566-384.716c156.984-6.292 273.79-126.98 273.79-279.105 0-153.405-124.377-279.127-278.823-279.127h-502.845l25.123 25.144h477.722c134.4 0 253.722 113.161 253.722 253.982 0 142.058-113.074 253.961-253.722 253.961-167.615 0-335.23 0-502.845 0v409.86z"></path>
<path fill="#ffffff" d="M3649.519 553.068c0-247.669 199.702-447.588 447.132-447.588 246.151 0 444.594 206.188 444.594 447.588 0 242.658-202.197 447.588-447.111 447.588v23.886c258.734 0 470.975-211.222 470.975-471.474s-209.746-471.474-468.458-471.474c-259.992 0-470.997 211.222-470.997 471.474h23.864z"></path>
<path fill="#ffffff" d="M4532.914 81.595l443.357 942.948 12.561-28.919-429.538-914.028h-26.381zM5193.546 556.843h26.381l221.049-475.249h-26.381l-221.049 475.249z"></path>
<path fill="#ffffff" d="M5574.986 81.595l-438.346 942.948h27.639l140.67-302.991h571.466l141.928 302.991h27.618l-155.726-328.136h-573.982l286.351-614.812z"></path>
<path fill="#ffffff" d="M2733.885 1024.542h25.101v-384.716h455.138l222.308 384.716h28.876l-223.566-384.716c157.006-6.292 273.812-126.98 273.812-279.105 0-153.405-124.377-279.127-278.823-279.127h-502.845l25.101 25.144h477.744c134.378 0 253.7 113.161 253.7 253.982 0 142.058-113.074 253.961-253.7 253.961-167.615 0-335.23 0-502.845 0v409.86z"></path>
</svg>
